# xmcd CD database file
# Generated: Sat Jul 13 16:15:54 2002 by KSCD
# 
# Track frame offsets:
#       150
#       14881
#       25631
#       40918
#       51516
#       65121
#       75514
#       88833
#       101452
#       110525
#       119342
#       134002
#       144424
#       157139
#       168177
#       174938
#
# Disc length: 2495 seconds
#
# Revision: 2
# Processed by: cddbd v1.4PL0 Copyright (c) Steve Scherf et al.
# Submitted via: Kscd 1.3.2
#
DISCID=de09bd10
DTITLE=Various Artist - Country Roads
DYEAR=1900
DGENRE=
TTITLE0=John Denver/Take me home Country Roads
TTITLE1=Roger Miller/King of the Road
TTITLE2=Billie Jo Spears/Blanket on the Ground
TTITLE3=Dolly Parton/Honky Tonk Angels
TTITLE4=Kenny Rogers/Ruby, don't take your love
TTITLE5=Johnny Cash/If I were a Carpenter
TTITLE6=Lynn Anderson/Rose Garden
TTITLE7=Willie Nelson/Shelter of your arms
TTITLE8=Dave Dudley/Keep on Trucking
TTITLE9=Waylon Jennings/Love gonna live here
TTITLE10=Loretta Lynn/Colminer's Daughter
TTITLE11=Don Gibson/Oh lonesome me
TTITLE12=Chary Pride/Help me make it trouhg
TTITLE13=Hank Locklin/Send me a Pillow
TTITLE14=Don Williams/Lord, I hope this day is good
TTITLE15=Lynn Anderson/Stand by your man
EXTD=
EXTT0=
EXTT1=
EXTT2=
EXTT3=
EXTT4=
EXTT5=
EXTT6=
EXTT7=
EXTT8=
EXTT9=
EXTT10=
EXTT11=
EXTT12=
EXTT13=
EXTT14=
EXTT15=
PLAYORDER=
